<?xml version="1.0" encoding="UTF-8"?>
<svg width="485px" height="129px" viewBox="0 0 485 129" version="1.1" xmlns="http://www.w3.org/2000/svg" xmlns:xlink="http://www.w3.org/1999/xlink">
    <!-- Generator: Sketch 51.3 (57544) - http://www.bohemiancoding.com/sketch -->
    <title>logo</title>
    <desc>Created with Sketch.</desc>
    <defs></defs>
    <g id="Page-1" stroke="none" stroke-width="1" fill="none" fill-rule="evenodd">
        <g id="logo" fill-rule="nonzero">
            <path d="M484.6,26.2 L304.1,26.2 C286.7,15.3 267.5,6.8 247.2,1.3 C240.4,-0.6 233.3,3.5 231.5,10.3 C230.1,15.5 228.9,20.8 228,26.1 L0.3,26.1 L0.3,30.4 L227.2,30.4 C225.4,41.5 224.4,53 224.4,64.6 C224.4,77.6 225.6,90.3 227.8,102.7 L0.3,102.7 L0.3,107 L228.7,107 C229.5,111 230.4,115 231.5,118.9 C233.3,125.8 240.4,129.8 247.2,127.9 C265.1,123.1 282,116 297.7,106.9 L484.7,106.9 L484.7,102.6 L304.7,102.6 C317.9,94.3 330.1,84.5 341.2,73.6 C346.2,68.6 346.2,60.5 341.2,55.5 C331.8,46.2 321.6,37.8 310.7,30.4 L484.7,30.4 L484.7,26.2 L484.6,26.2 Z" id="Shape" fill="#D40E8C"></path>
            <g id="Group" transform="translate(238.000000, 30.000000)" fill="#FFFFFF">
                <path d="M1.5,49.4 C-0.9,58 4.7,62.9 11.2,65.5 C14.4,56.3 7.4,52.5 1.5,49.4 Z" id="Shape"></path>
                <path d="M11.3,51.8 C14.2,43.2 7.7,39.7 2.2,36.7 C-0.1,44.7 5.2,49.3 11.3,51.8 Z" id="Shape"></path>
                <path d="M11,38.8 C13.7,30.7 7.7,27.5 2.7,24.7 C0.7,32.2 5.5,36.5 11,38.8 Z" id="Shape"></path>
                <path d="M54.2,32.3 L52.6,32 L54.1,31.4 C60.6,28.8 64.3,23.4 64.3,16.5 C64.3,5.9 56.6,0.5 41.4,0.5 L14.6,0.5 L14.6,15.7 C12.5,8.8 9.4,3.7 9.4,3.7 L8.9,4.4 C8.9,4.4 14.5,14.3 14.5,26.2 C12.1,19.3 8.8,15.8 6.2,13.3 L6,14.1 C6.8,14.9 14.5,22.1 14.5,37.5 L14.5,68.6 L40,68.6 C57.8,68.6 67.6,61.3 67.6,47.9 C67.7,40 62.5,34.1 54.2,32.3 Z M17.8,51.8 C14.9,43.2 21.4,39.7 26.9,36.7 C29.2,44.7 23.9,49.3 17.8,51.8 Z M26.3,24.7 C28.4,32.2 23.5,36.5 17.8,38.8 C15,30.7 21.1,27.4 26.3,24.7 Z M17.9,65.5 C14.8,56.3 21.8,52.5 27.6,49.4 C30,57.9 24.4,62.9 17.9,65.5 Z M38.9,57 L32.5,57 L32.5,11.5 L37.6,11.5 C43.2,11.5 46.6,13.7 46.6,19.2 C46.6,24.6 43.7,27.9 38.1,27.9 L38.1,39.1 L39.1,39.1 C45.5,39.1 49.2,41.8 49.2,47.5 C49.2,53.2 46.5,57 38.9,57 Z" id="Shape"></path>
            </g>
            <path d="M34.5,54.7 C34.5,59.4 31.9,62.6 28.1,64.1 C33.3,65.2 36.6,68.8 36.6,73.9 C36.6,82.3 30.5,86.9 19.3,86.9 L0.3,86.9 L0.3,80.8 L2.3,80.6 C3.4,80.5 3.8,80.1 3.8,78.6 L3.8,51.1 L0.4,50.8 L0.4,44.6 L20.2,44.6 C27.9,44.6 34.5,46.9 34.5,54.7 Z M14.7,61.7 L17.6,61.7 C21.6,61.7 23.3,59.7 23.3,56.3 C23.3,52.9 21.2,51.6 17.8,51.6 L14.7,51.6 C14.7,51.6 14.7,61.7 14.7,61.7 Z M14.7,79.6 L18.7,79.6 C23.4,79.6 25,77.3 25,73.8 C25,70.3 22.8,68.6 18.8,68.6 L14.7,68.6 L14.7,79.6 Z M179.6,67.2 C179.6,70.3 179.6,73.3 179.6,73.3 L161,73.3 C161.1,77.8 163.8,79.9 167.9,79.9 C170.9,79.9 173.8,78.7 175.9,77.2 L179,84.3 C178.9,84.4 174.2,87.8 166.7,87.8 C155,87.8 150.5,80.7 150.5,71 C150.5,61.7 155.7,53.5 166.8,53.5 C174.1,53.5 179.6,58.4 179.6,67.2 Z M160.9,67.5 L170.3,67.5 C170.4,63.8 169.7,61.1 166.2,61.1 C163.1,61.1 161,63.6 160.9,67.5 Z M391.1,54.7 C391.1,59.4 388.5,62.6 384.7,64.1 C389.9,65.2 393.2,68.8 393.2,73.9 C393.2,82.3 387.1,86.9 375.9,86.9 L356.8,86.9 L356.8,80.8 L358.8,80.6 C359.9,80.5 360.3,80.1 360.3,78.6 L360.3,51.1 L356.9,50.8 L356.9,44.6 L376.7,44.6 C384.5,44.6 391.1,46.9 391.1,54.7 Z M371.3,61.7 L374.2,61.7 C378.2,61.7 379.9,59.7 379.9,56.3 C379.9,52.9 377.8,51.6 374.4,51.6 L371.3,51.6 L371.3,61.7 Z M371.3,79.6 L375.3,79.6 C380,79.6 381.6,77.3 381.6,73.8 C381.6,70.3 379.4,68.6 375.4,68.6 L371.3,68.6 L371.3,79.6 Z M411.8,53.5 C420.9,53.5 424.5,56.4 424.5,65.9 L424.5,79 C424.5,80.4 424.8,80.8 425.9,81 L427.6,81.2 L427.6,87 L415.6,87 L415.6,83.6 L415.3,83.6 C413.4,86.4 410.3,87.8 406.7,87.8 C399.6,87.8 397,83.4 397,77.6 C397,69.7 402.6,67.3 410.3,67.3 C411.6,67.3 413.6,67.4 414.2,67.6 L414.2,64.9 C414.2,61.8 412.9,60.8 410.4,60.8 C409.4,60.8 408.4,60.9 407.7,61.1 C407,61.3 406.8,61.8 406.8,62.6 L406.8,65 L398.8,65 L398.8,56 C401.3,54.9 406.9,53.5 411.8,53.5 Z M414.2,73.5 C413.8,73.4 412.4,73.2 411.4,73.2 C409.1,73.2 407.2,74 407.2,77 C407.2,79.5 408.2,80.7 410.1,80.7 C411.7,80.7 413.2,79.8 414.2,78.9 L414.2,73.5 Z M461.8,55.2 C466.5,54.1 468.5,50.9 469.8,46.9 L475.7,46.9 L475.7,54.4 L482.6,54.4 L482.6,61.4 L475.7,61.4 L475.7,75.1 C475.7,78.6 476.3,79.6 479.3,79.6 C480.8,79.6 482.2,79.2 483.3,78.6 L484.8,85.7 C483,86.8 479.8,87.7 476.3,87.7 C465.2,87.7 465.1,82 465.1,76.1 L465.1,61.4 L461.9,61.4 L461.8,55.2 Z M205.5,53.5 C200,53.5 197.4,56.9 196.4,59.3 L196.3,59.3 L196.3,54.4 L183.4,54.4 L183.4,60.4 L185.2,60.6 C186.3,60.7 186.7,61.2 186.7,62.4 L186.7,79 C186.7,80.5 186.4,81 185.2,81.1 L183.5,81.3 L183.5,87.1 L202.8,87.1 L202.8,81.2 L197.3,80.9 L197.3,66.9 C197.3,64 198.8,61.8 201.3,61.8 C201.9,61.8 202.3,61.9 202.6,62 C203,62.2 203.1,62.4 203.1,63.3 L203.1,65.2 L211.4,65.2 L211.4,54.5 C209.7,53.8 207.3,53.5 205.5,53.5 Z M106.6,80.5 L98.6,66.9 L104,61.9 C104.8,61.2 105.5,60.4 106.5,60.4 L107.7,60.3 L107.7,54.4 L93,54.4 L93,60.3 L95.8,60.6 L95.8,60.9 L87.7,68.2 L87.7,41.5 L73.9,41.5 L73.9,47.5 L75.7,47.8 C76.8,47.9 77.2,48.3 77.2,49.6 L77.2,79 C77.2,80.6 76.9,81 75.7,81.1 L73.9,81.3 L73.9,87.1 L90.2,87.1 L90.2,81.2 L87.8,80.9 L87.8,75 L90.9,72.3 L95.1,79.5 C95.6,80.4 95.4,80.9 94.6,81 L93.3,81.1 L93.3,87 L109.8,87 L109.8,81 L106.6,80.5 Z M70.7,87 L70.7,81.2 L69.3,81 C68.2,80.9 67.9,80.4 67.9,79 L67.9,66 C67.9,56.4 64.3,53.6 55.2,53.6 C50.3,53.6 44.7,54.9 42.1,56.1 L42.1,65.2 L50.1,65.2 L50.1,62.8 C50.1,62 50.2,61.5 51,61.3 C51.8,61.1 52.8,61 53.7,61 C56.2,61 57.5,62 57.5,65.1 L57.5,67.8 C56.9,67.7 55,67.5 53.6,67.5 C45.9,67.5 40.3,69.9 40.3,77.8 C40.3,83.6 42.8,88 50,88 C53.6,88 56.7,86.6 58.6,83.8 L58.9,83.8 L58.9,87.2 L70.7,87.2 L70.7,87 Z M57.6,78.8 C56.6,79.7 55.1,80.6 53.5,80.6 C51.6,80.6 50.6,79.4 50.6,76.9 C50.6,74 52.5,73.1 54.8,73.1 C55.8,73.1 57.2,73.3 57.6,73.4 L57.6,78.8 Z M145.6,80.5 L137.6,66.9 L143,61.9 C143.8,61.2 144.5,60.4 145.5,60.4 L146.7,60.3 L146.7,54.4 L132,54.4 L132,60.3 L134.8,60.6 L134.8,60.9 L126.7,68.2 L126.7,41.5 L112.9,41.5 L112.9,47.5 L114.7,47.8 C115.8,47.9 116.2,48.3 116.2,49.6 L116.2,79 C116.2,80.6 115.9,81 114.7,81.1 L112.9,81.3 L112.9,87.1 L129.2,87.1 L129.2,81.2 L126.8,80.9 L126.8,75 L129.9,72.3 L134.1,79.5 C134.6,80.4 134.4,80.9 133.6,81 L132.3,81.1 L132.3,87 L148.8,87 L148.8,81 L145.6,80.5 Z M452.8,53.5 C447.3,53.5 444.7,56.9 443.7,59.3 L443.6,59.3 L443.6,54.4 L430.7,54.4 L430.7,60.4 L432.5,60.6 C433.6,60.7 434,61.2 434,62.4 L434,79 C434,80.5 433.7,81 432.5,81.1 L430.8,81.3 L430.8,87.1 L450,87.1 L450,81.2 L444.5,80.9 L444.5,66.9 C444.5,64 446,61.8 448.5,61.8 C449.1,61.8 449.5,61.9 449.8,62 C450.2,62.2 450.3,62.4 450.3,63.3 L450.3,65.2 L458.6,65.2 L458.6,54.5 C457,53.8 454.6,53.5 452.8,53.5 Z" id="Shape" fill="#3E1707"></path>
        </g>
    </g>
</svg>